<svg width="40" height="40" viewBox="0 0 40 40" fill="none" xmlns="http://www.w3.org/2000/svg">
<rect width="40" height="40" rx="20" fill="#E50185"/>
<mask id="mask0_183_355" style="mask-type:luminance" maskUnits="userSpaceOnUse" x="7" y="7" width="26" height="26">
<path d="M7 7H33V33H7V7Z" fill="white"/>
</mask>
<g mask="url(#mask0_183_355)">
<path d="M30.8333 14.5837H23.25V12.417H30.8333V14.5837ZM32.7032 25.417C32.2243 26.8221 30.5051 28.667 27.1771 28.667C23.8469 28.667 21.1494 26.7939 21.1494 22.5191C21.1494 18.2832 23.6682 16.1057 27.0709 16.1057C30.4097 16.1057 32.4486 18.0362 32.8938 20.9006C32.9783 21.4487 33.0119 22.1876 32.9967 23.2189H24.3008C24.4417 26.6975 28.0741 26.8069 29.2712 25.417H32.7032ZM24.3767 21.0837H29.7554C29.6417 19.4077 28.5247 18.6797 27.072 18.6797C25.4838 18.6797 24.6052 19.5117 24.3767 21.0837ZM14.0048 28.654H7V12.4397H14.5324C20.4647 12.5275 20.5774 18.3374 17.4791 19.9212C21.2285 21.2862 21.3542 28.654 14.0048 28.654ZM10.25 18.917H14.1327C16.8497 18.917 17.2808 15.667 13.7947 15.667H10.25V18.917ZM13.9236 22.167H10.25V25.4343H13.8694C17.179 25.4343 16.9764 22.167 13.9236 22.167Z" fill="white"/>
</g>
</svg>
