<svg width="45" height="45" viewBox="0 0 45 45" fill="none" xmlns="http://www.w3.org/2000/svg">
<path d="M19 43H27M15 29H31M9 17C9 13.287 10.475 9.72601 13.1005 7.1005C15.726 4.475 19.287 3 23 3C26.713 3 30.274 4.475 32.8995 7.1005C35.525 9.72601 37 13.287 37 17C37.0013 19.2541 36.4561 21.475 35.4112 23.4723C34.3662 25.4696 32.8526 27.1838 31 28.468L29.916 33.6C29.7725 34.5459 29.2947 35.4091 28.5692 36.0329C27.8438 36.6567 26.9188 36.9998 25.962 37H20.038C19.0812 36.9998 18.1562 36.6567 17.4308 36.0329C16.7053 35.4091 16.2275 34.5459 16.084 33.6L15 28.49C13.1468 27.2013 11.6331 25.483 10.5883 23.4822C9.54347 21.4813 8.99851 19.2572 9 17Z" stroke="#F8F8F8" stroke-width="3.5" stroke-linecap="round" stroke-linejoin="round"/>
</svg>
