<svg width="45" height="45" viewBox="0 0 45 45" fill="none" xmlns="http://www.w3.org/2000/svg">
<path d="M31.8724 36.8136L30.6693 27.0536C30.4988 25.6711 29.8357 24.3994 28.8048 23.4776C27.7739 22.5558 26.4461 22.0473 25.0711 22.0479H20.928C19.5537 22.0482 18.2268 22.5571 17.1967 23.4789C16.1665 24.4006 15.504 25.6718 15.3336 27.0536L14.1286 36.8136C14.0625 37.3498 14.1097 37.8941 14.2671 38.4104C14.4245 38.9267 14.6886 39.4032 15.0417 39.8082C15.3948 40.2132 15.8289 40.5374 16.3151 40.7593C16.8014 40.9813 17.3287 41.0959 17.862 41.0955H28.1409C28.6741 41.0956 29.2011 40.9808 29.6872 40.7587C30.1732 40.5367 30.607 40.2124 30.9599 39.8075C31.3128 39.4025 31.5767 38.9261 31.734 38.41C31.8913 37.8938 31.9385 37.3496 31.8724 36.8136Z" stroke="#F8F8F8" stroke-width="3.5" stroke-linecap="round" stroke-linejoin="round"/>
<path d="M23.0018 14.4286C26.1164 14.4286 28.6413 11.8702 28.6413 8.71429C28.6413 5.55837 26.1164 3 23.0018 3C19.8872 3 17.3623 5.55837 17.3623 8.71429C17.3623 11.8702 19.8872 14.4286 23.0018 14.4286Z" stroke="#F8F8F8" stroke-width="3.5"/>
<path d="M7.96084 20.143C10.0372 20.143 11.7205 18.4374 11.7205 16.3334C11.7205 14.2295 10.0372 12.5239 7.96084 12.5239C5.88443 12.5239 4.20117 14.2295 4.20117 16.3334C4.20117 18.4374 5.88443 20.143 7.96084 20.143Z" stroke="#F8F8F8" stroke-width="3.5"/>
<path d="M38.039 20.143C40.1154 20.143 41.7986 18.4374 41.7986 16.3334C41.7986 14.2295 40.1154 12.5239 38.039 12.5239C35.9626 12.5239 34.2793 14.2295 34.2793 16.3334C34.2793 18.4374 35.9626 20.143 38.039 20.143Z" stroke="#F8F8F8" stroke-width="3.5"/>
<path d="M7.96134 25.8569H7.38611C6.49613 25.8568 5.63496 26.1766 4.95582 26.7594C4.27668 27.3423 3.8236 28.1503 3.6772 29.0398L3.05122 32.8493C2.96138 33.3951 2.98998 33.9542 3.135 34.4877C3.28003 35.0211 3.538 35.5162 3.89099 35.9384C4.24398 36.3606 4.6835 36.6998 5.17899 36.9325C5.67447 37.1651 6.21403 37.2856 6.76013 37.2855H13.6008M38.0387 25.8569H38.6139C39.5039 25.8568 40.365 26.1766 41.0442 26.7594C41.7233 27.3423 42.1764 28.1503 42.3228 29.0398L42.9488 32.8493C43.0386 33.3951 43.01 33.9542 42.865 34.4877C42.72 35.0211 42.462 35.5162 42.109 35.9384C41.756 36.3606 41.3165 36.6998 40.821 36.9325C40.3255 37.1651 39.786 37.2856 39.2399 37.2855H32.3992" stroke="#F8F8F8" stroke-width="3.5" stroke-linecap="round" stroke-linejoin="round"/>
</svg>
