<svg width="45" height="45" viewBox="0 0 45 45" fill="none" xmlns="http://www.w3.org/2000/svg">
<path d="M3 11C3 8.87827 3.84285 6.84344 5.34315 5.34315C6.84344 3.84285 8.87827 3 11 3H35C37.1217 3 39.1566 3.84285 40.6569 5.34315C42.1571 6.84344 43 8.87827 43 11V35C43 37.1217 42.1571 39.1566 40.6569 40.6569C39.1566 42.1571 37.1217 43 35 43H11C8.87827 43 6.84344 42.1571 5.34315 40.6569C3.84285 39.1566 3 37.1217 3 35V11Z" stroke="#F8F8F8" stroke-width="3.5" stroke-linecap="round" stroke-linejoin="round"/>
<path d="M16 21C18.7614 21 21 18.7614 21 16C21 13.2386 18.7614 11 16 11C13.2386 11 11 13.2386 11 16C11 18.7614 13.2386 21 16 21Z" stroke="#F8F8F8" stroke-width="3.5" stroke-linecap="round" stroke-linejoin="round"/>
<path d="M28.052 24.2421L11 43.0001H35.266C37.3172 43.0001 39.2844 42.1853 40.7348 40.7349C42.1852 39.2845 43 37.3173 43 35.2661V35.0001C43 34.0681 42.65 33.7101 42.02 33.0201L33.96 24.2301C33.5844 23.8203 33.1274 23.4934 32.6183 23.2701C32.1093 23.0467 31.5592 22.932 31.0034 22.9331C30.4475 22.9342 29.8979 23.0512 29.3897 23.2766C28.8816 23.502 28.426 23.8308 28.052 24.2421Z" stroke="#F8F8F8" stroke-width="3.5" stroke-linecap="round" stroke-linejoin="round"/>
</svg>
