<svg width="40" height="40" viewBox="0 0 40 40" fill="none" xmlns="http://www.w3.org/2000/svg">
<rect width="40" height="40" rx="20" fill="#E50185"/>
<path fill-rule="evenodd" clip-rule="evenodd" d="M14.6405 7.078C16.0267 7.01418 16.4687 7 20 7C23.5313 7 23.9733 7.01536 25.3584 7.078C26.7435 7.14064 27.6889 7.36164 28.5162 7.68191C29.3825 8.00927 30.1684 8.521 30.8184 9.18282C31.4802 9.83164 31.9907 10.6164 32.3169 11.4838C32.6384 12.3111 32.8582 13.2565 32.922 14.6393C32.9858 16.0279 33 16.4699 33 20C33 23.5313 32.9846 23.9733 32.922 25.3595C32.8594 26.7423 32.6384 27.6877 32.3169 28.515C31.9907 29.3826 31.4793 30.1686 30.8184 30.8184C30.1684 31.4802 29.3825 31.9907 28.5162 32.3169C27.6889 32.6384 26.7435 32.8582 25.3607 32.922C23.9733 32.9858 23.5313 33 20 33C16.4687 33 16.0267 32.9846 14.6405 32.922C13.2577 32.8594 12.3123 32.6384 11.485 32.3169C10.6175 31.9907 9.83142 31.4793 9.18164 30.8184C8.52027 30.1692 8.00846 29.3835 7.68191 28.5162C7.36164 27.6889 7.14182 26.7435 7.078 25.3607C7.01418 23.9721 7 23.5301 7 20C7 16.4687 7.01536 16.0267 7.078 14.6416C7.14064 13.2565 7.36164 12.3111 7.68191 11.4838C8.00895 10.6165 8.52114 9.83082 9.18282 9.18164C9.83168 8.52041 10.6169 8.00861 11.4838 7.68191C12.3111 7.36164 13.2577 7.14182 14.6405 7.078ZM25.2532 9.418C23.8823 9.35536 23.471 9.34236 20 9.34236C16.529 9.34236 16.1177 9.35536 14.7468 9.418C13.4787 9.47591 12.7909 9.68745 12.3324 9.86591C11.7261 10.1023 11.2924 10.3824 10.8374 10.8374C10.4061 11.257 10.0741 11.7678 9.86591 12.3324C9.68745 12.7909 9.47591 13.4787 9.418 14.7468C9.35536 16.1177 9.34236 16.529 9.34236 20C9.34236 23.471 9.35536 23.8823 9.418 25.2532C9.47591 26.5213 9.68745 27.2091 9.86591 27.6676C10.0739 28.2314 10.406 28.7431 10.8374 29.1626C11.2569 29.594 11.7686 29.9261 12.3324 30.1341C12.7909 30.3125 13.4787 30.5241 14.7468 30.582C16.1177 30.6446 16.5278 30.6576 20 30.6576C23.4722 30.6576 23.8823 30.6446 25.2532 30.582C26.5213 30.5241 27.2091 30.3125 27.6676 30.1341C28.2739 29.8977 28.7076 29.6176 29.1626 29.1626C29.594 28.7431 29.9261 28.2314 30.1341 27.6676C30.3125 27.2091 30.5241 26.5213 30.582 25.2532C30.6446 23.8823 30.6576 23.471 30.6576 20C30.6576 16.529 30.6446 16.1177 30.582 14.7468C30.5241 13.4787 30.3125 12.7909 30.1341 12.3324C29.8977 11.7261 29.6176 11.2924 29.1626 10.8374C28.743 10.4061 28.2322 10.0742 27.6676 9.86591C27.2091 9.68745 26.5213 9.47591 25.2532 9.418ZM18.3395 24.0075C19.2669 24.3936 20.2994 24.4457 21.2609 24.1549C22.2224 23.8642 23.0531 23.2487 23.6112 22.4136C24.1693 21.5784 24.4201 20.5754 24.3208 19.5759C24.2215 18.5763 23.7783 17.6422 23.0668 16.9332C22.6133 16.4799 22.0649 16.1329 21.4611 15.917C20.8574 15.7011 20.2132 15.6218 19.5751 15.6847C18.937 15.7477 18.3208 15.9513 17.7709 16.281C17.2209 16.6106 16.7509 17.0582 16.3946 17.5913C16.0384 18.1244 15.8048 18.7299 15.7106 19.3641C15.6165 19.9984 15.6641 20.6456 15.8501 21.2592C16.0361 21.8729 16.3558 22.4376 16.7863 22.9129C17.2168 23.3881 17.7472 23.7619 18.3395 24.0075ZM15.2751 15.2751C15.8956 14.6546 16.6322 14.1624 17.4429 13.8266C18.2536 13.4908 19.1225 13.318 20 13.318C20.8775 13.318 21.7464 13.4908 22.5571 13.8266C23.3678 14.1624 24.1044 14.6546 24.7249 15.2751C25.3454 15.8956 25.8376 16.6322 26.1734 17.4429C26.5092 18.2536 26.682 19.1225 26.682 20C26.682 20.8775 26.5092 21.7464 26.1734 22.5571C25.8376 23.3678 25.3454 24.1044 24.7249 24.7249C23.4718 25.978 21.7722 26.682 20 26.682C18.2278 26.682 16.5282 25.978 15.2751 24.7249C14.022 23.4718 13.318 21.7722 13.318 20C13.318 18.2278 14.022 16.5282 15.2751 15.2751ZM28.164 14.3131C28.3178 14.168 28.4409 13.9936 28.526 13.8002C28.6111 13.6067 28.6566 13.3981 28.6597 13.1867C28.6628 12.9754 28.6234 12.7656 28.5439 12.5697C28.4645 12.3738 28.3465 12.1959 28.197 12.0464C28.0476 11.8969 27.8696 11.779 27.6738 11.6995C27.4779 11.6201 27.2681 11.5807 27.0567 11.5838C26.8454 11.5869 26.6368 11.6323 26.4433 11.7175C26.2498 11.8026 26.0754 11.9257 25.9304 12.0795C25.6483 12.3785 25.4938 12.7757 25.4998 13.1867C25.5058 13.5978 25.6718 13.9903 25.9625 14.281C26.2531 14.5717 26.6457 14.7376 27.0567 14.7436C27.4678 14.7496 27.865 14.5952 28.164 14.3131Z" fill="white"/>
</svg>
