<svg width="45" height="45" viewBox="0 0 45 45" fill="none" xmlns="http://www.w3.org/2000/svg">
<path d="M9 7C9 5.93913 9.42143 4.92172 10.1716 4.17157C10.9217 3.42143 11.9391 3 13 3H33C34.0609 3 35.0783 3.42143 35.8284 4.17157C36.5786 4.92172 37 5.93913 37 7V17C37 20.713 35.525 24.274 32.8995 26.8995C30.274 29.525 26.713 31 23 31C19.287 31 15.726 29.525 13.1005 26.8995C10.475 24.274 9 20.713 9 17V7ZM17 43H29L23 33L17 43Z" stroke="#F8F8F8" stroke-width="3.5" stroke-linecap="round" stroke-linejoin="round"/>
<path d="M9 7H7C5.93913 7 4.92172 7.42143 4.17157 8.17157C3.42143 8.92172 3 9.93913 3 11V13.478C2.99997 14.932 3.39618 16.3584 4.14605 17.6041C4.89592 18.8498 5.97109 19.8675 7.256 20.548L10 22M37 7H39C40.0609 7 41.0783 7.42143 41.8284 8.17157C42.5786 8.92172 43 9.93913 43 11V12.274C43.0001 14.0915 42.5049 15.8747 41.5676 17.4319C40.6302 18.9891 39.2862 20.2614 37.68 21.112L36 22" stroke="#F8F8F8" stroke-width="3.5" stroke-linejoin="round"/>
</svg>
