<svg width="40" height="40" viewBox="0 0 40 40" fill="none" xmlns="http://www.w3.org/2000/svg">
<rect width="40" height="40" rx="20" fill="#E50185"/>
<path d="M28.3485 12.56C28.1764 12.4692 28.0089 12.3698 27.8465 12.2619C27.3747 11.9438 26.9421 11.5691 26.558 11.1457C25.5959 10.0238 25.2367 8.88569 25.1052 8.08959H25.1097C24.9998 7.42752 25.0451 7 25.0531 7H20.6731V24.2658C20.6731 24.4969 20.6731 24.7269 20.6641 24.9533C20.6641 24.9811 20.6607 25.0065 20.6595 25.0377C20.6595 25.0492 20.6595 25.0631 20.6561 25.0758V25.0862C20.6101 25.7056 20.4156 26.3039 20.0895 26.8285C19.7635 27.3532 19.3159 27.7881 18.7863 28.095C18.2338 28.4155 17.6088 28.5836 16.9731 28.5826C14.9333 28.5826 13.2788 26.8864 13.2788 24.7916C13.2788 22.6956 14.9333 20.9994 16.9731 20.9994C17.3596 20.9994 17.7437 21.0618 18.1109 21.1843L18.1166 16.6364C17.0015 16.4897 15.8687 16.5804 14.7897 16.9025C13.7107 17.2247 12.7089 17.7714 11.8475 18.5083C11.0926 19.1767 10.458 19.9744 9.97204 20.8654C9.78732 21.19 9.08925 22.4969 9.00539 24.6159C8.95213 25.8176 9.30683 27.0655 9.47568 27.5797V27.5912C9.58107 27.894 9.99357 28.9292 10.6644 29.8016C11.2054 30.5018 11.8446 31.1169 12.5615 31.6272V31.6156L12.5717 31.6272C14.6908 33.0946 17.0423 32.9987 17.0423 32.9987C17.4491 32.9814 18.8124 32.9987 20.3604 32.2511C22.0772 31.4215 23.0541 30.1864 23.0541 30.1864C23.6786 29.4482 24.1753 28.6069 24.5227 27.6987C24.9194 26.6357 25.0508 25.3624 25.0508 24.854V15.6924C25.1041 15.7248 25.8123 16.202 25.8123 16.202C25.8123 16.202 26.8323 16.8687 28.4222 17.302C29.5622 17.6105 31.1 17.6763 31.1 17.6763V13.2429C30.5617 13.303 29.4681 13.1296 28.3474 12.5612L28.3485 12.56Z" fill="white"/>
</svg>
