<svg width="40" height="40" viewBox="0 0 40 40" fill="none" xmlns="http://www.w3.org/2000/svg">
<rect width="40" height="40" rx="20" fill="#E50185"/>
<path d="M33 12.491C32.0439 12.9119 31.0167 13.1963 29.9369 13.3249C31.0511 12.6625 31.8846 11.62 32.282 10.392C31.2353 11.0097 30.0896 11.4445 28.8949 11.6775C28.0915 10.8253 27.0274 10.2604 25.8677 10.0705C24.7081 9.8807 23.5178 10.0766 22.4816 10.6277C21.4455 11.1789 20.6215 12.0545 20.1376 13.1186C19.6537 14.1828 19.5369 15.3759 19.8053 16.5127C17.6843 16.4069 15.6094 15.8592 13.7152 14.905C11.821 13.9509 10.1499 12.6118 8.81036 10.9744C8.35233 11.7595 8.08896 12.6696 8.08896 13.6389C8.08845 14.5115 8.30473 15.3707 8.71861 16.1404C9.1325 16.91 9.73118 17.5662 10.4616 18.0509C9.61452 18.0241 8.78617 17.7967 8.04545 17.3876V17.4558C8.04537 18.6797 8.47145 19.8659 9.25142 20.8132C10.0314 21.7604 11.1172 22.4104 12.3246 22.6528C11.5388 22.8641 10.715 22.8952 9.91535 22.7438C10.256 23.7969 10.9196 24.7177 11.8132 25.3775C12.7067 26.0372 13.7856 26.4028 14.8987 26.4231C13.0091 27.8969 10.6756 28.6963 8.27332 28.6928C7.84779 28.6929 7.42262 28.6682 7 28.6188C9.4384 30.1765 12.2769 31.0032 15.1758 31C24.9891 31 30.3537 22.9247 30.3537 15.9211C30.3537 15.6936 30.348 15.4638 30.3377 15.2362C31.3812 14.4865 32.2819 13.558 32.9977 12.4944L33 12.491Z" fill="white"/>
</svg>
