<svg width="40" height="40" viewBox="0 0 40 40" fill="none" xmlns="http://www.w3.org/2000/svg">
<g clip-path="url(#clip0_183_338)">
<rect width="40" height="40" rx="20" fill="#E50185"/>
<mask id="mask0_183_338" style="mask-type:luminance" maskUnits="userSpaceOnUse" x="0" y="0" width="40" height="40">
<path d="M0 0H40V40H0V0Z" fill="white"/>
</mask>
<g mask="url(#mask0_183_338)">
<path fill-rule="evenodd" clip-rule="evenodd" d="M25.957 22.6555C25.6327 22.4933 24.0423 21.7118 23.7462 21.6029C23.4501 21.4951 23.2346 21.4418 23.018 21.7662C22.8024 22.0884 22.183 22.8177 21.9947 23.0333C21.8053 23.2499 21.617 23.276 21.2937 23.1149C20.9704 22.9516 19.9276 22.6109 18.6921 21.5093C17.7309 20.6515 17.081 19.5924 16.8927 19.268C16.7044 18.9447 16.872 18.7694 17.0342 18.6083C17.1801 18.4635 17.3575 18.2306 17.5197 18.0423C17.6819 17.8529 17.7352 17.7179 17.843 17.5013C17.9519 17.2857 17.8974 17.0974 17.8158 16.9352C17.7352 16.773 17.0887 15.1805 16.8187 14.5328C16.5564 13.9025 16.2897 13.9885 16.0915 13.9776C15.9021 13.9689 15.6866 13.9667 15.4711 13.9667C15.2555 13.9667 14.905 14.0473 14.6089 14.3717C14.3118 14.695 13.4769 15.4776 13.4769 17.0702C13.4769 18.6616 14.6351 20.1998 14.7973 20.4164C14.9595 20.6319 17.0778 23.8997 20.3227 25.3007C21.0956 25.6338 21.6976 25.833 22.1667 25.981C22.9418 26.2281 23.6471 26.1933 24.2045 26.1095C24.825 26.017 26.1181 25.3268 26.3881 24.5714C26.657 23.8159 26.657 23.1682 26.5764 23.0333C26.4959 22.8983 26.2803 22.8177 25.9559 22.6555H25.957ZM20.0549 30.714H20.0506C18.1232 30.7144 16.2313 30.1963 14.573 29.214L14.1811 28.9811L10.1078 30.05L11.1953 26.079L10.9395 25.6719C9.86194 23.9567 9.29171 21.9717 9.29466 19.9461C9.29683 14.0136 14.1234 9.18694 20.0593 9.18694C22.9331 9.18694 25.6348 10.3081 27.6661 12.3415C28.6679 13.3393 29.462 14.5258 30.0024 15.8324C30.5427 17.139 30.8186 18.5398 30.8141 19.9538C30.812 25.8863 25.9853 30.714 20.0549 30.714ZM29.2118 10.7969C28.0124 9.58961 26.5854 8.63236 25.0134 7.98061C23.4413 7.32886 21.7556 6.99556 20.0539 7.00004C12.9195 7.00004 7.11103 12.8074 7.10885 19.945C7.10555 22.2166 7.70143 24.4488 8.83638 26.4165L7 33.1252L13.8622 31.3247C15.7605 32.359 17.8877 32.9009 20.0495 32.9009H20.0549C27.1893 32.9009 32.9978 27.0935 32.9999 19.9548C33.0052 18.2537 32.6731 16.5685 32.0229 14.9965C31.3727 13.4246 30.4172 11.9972 29.2118 10.7969Z" fill="white"/>
</g>
</g>
<defs>
<clipPath id="clip0_183_338">
<rect width="40" height="40" rx="20" fill="white"/>
</clipPath>
</defs>
</svg>
